<?xml version="1.0" encoding="UTF-8" standalone="no"?>
<!-- Created with Inkscape (http://www.inkscape.org/) -->

<svg
   width="16"
   height="16"
   viewBox="0 0 16 16"
   version="1.1"
   id="svg841"
   inkscape:version="1.1.1 (3bf5ae0d25, 2021-09-20)"
   sodipodi:docname="Customize icon 16px_v.3.svg"
   xmlns:inkscape="http://www.inkscape.org/namespaces/inkscape"
   xmlns:sodipodi="http://sodipodi.sourceforge.net/DTD/sodipodi-0.dtd"
   xmlns="http://www.w3.org/2000/svg"
   xmlns:svg="http://www.w3.org/2000/svg">
  <sodipodi:namedview
     id="namedview843"
     pagecolor="#ffffff"
     bordercolor="#666666"
     borderopacity="1.0"
     inkscape:pageshadow="2"
     inkscape:pageopacity="0.0"
     inkscape:pagecheckerboard="true"
     inkscape:document-units="px"
     showgrid="true"
     scale-x="1e-05"
     units="px"
     inkscape:snap-global="false"
     inkscape:zoom="33.542416"
     inkscape:cx="1.3713979"
     inkscape:cy="10.568708"
     inkscape:window-width="1920"
     inkscape:window-height="1017"
     inkscape:window-x="-8"
     inkscape:window-y="-8"
     inkscape:window-maximized="1"
     inkscape:current-layer="layer1">
    <inkscape:grid
       type="xygrid"
       id="grid902" />
  </sodipodi:namedview>
  <defs
     id="defs838" />
  <g
     inkscape:label="Layer 1"
     inkscape:groupmode="layer"
     id="layer1">
    <g
       style="fill:none"
       id="g942"
       transform="matrix(0.26458333,0,0,0.26458333,-3.89229,4.9179583)">
      <path
         style="display:none;fill:none;stroke:#13ffff;stroke-opacity:1"
         d="m 7.002144,2.28571 c 0,-0.71038 -0.5777,-1.287853 -1.28786,-1.287853 -0.71016,0 -1.28786,0.577473 -1.28786,1.287853 0,0.71039 0.5777,1.28786 1.28786,1.28786 0.71016,0 1.28786,-0.57747 1.28786,-1.28786 z"
         id="path889" />
      <path
         style="display:none;fill:none;stroke:#13ffff;stroke-opacity:1"
         d="m 8.997854,8 c 0,0.71038 0.5777,1.28786 1.28788,1.28786 0.7101,0 1.2878,-0.57748 1.2878,-1.28786 0,-0.71038 -0.5777,-1.28786 -1.2878,-1.28786 -0.71018,0 -1.28788,0.57748 -1.28788,1.28786 z"
         id="path887" />
      <path
         style="display:none;fill:none;stroke:#13ffff;stroke-opacity:1"
         d="m 4.426424,13.7143 c 0,0.7104 0.5777,1.2878 1.28786,1.2878 0.71016,0 1.28786,-0.5774 1.28786,-1.2878 0,-0.7104 -0.5777,-1.2879 -1.28786,-1.2879 -0.71016,0 -1.28786,0.5775 -1.28786,1.2879 z"
         id="path885" />
      <path
         style="fill:none;stroke:#000000;stroke-width:3.77953px;stroke-linecap:round;stroke-linejoin:miter;stroke-opacity:1"
         d="M 16.600781,28.656536 H 43.057474"
         id="path1778"
         sodipodi:nodetypes="cc" />
      <ellipse
         style="fill:none;stroke:#000000;stroke-width:3.77951;stroke-linecap:square;stroke-linejoin:round;stroke-miterlimit:4;stroke-dasharray:none"
         id="circle1780"
         cx="51.561413"
         cy="29.601418"
         rx="6.6141729"
         ry="6.6141734" />
      <path
         style="fill:none;stroke:#000000;stroke-width:3.77953px;stroke-linecap:round;stroke-linejoin:miter;stroke-opacity:1"
         d="M 73.293695,9.7588979 H 47.023902"
         id="path1782" />
      <ellipse
         style="fill:none;stroke:#000000;stroke-width:3.77951;stroke-linecap:square;stroke-linejoin:round;stroke-miterlimit:4;stroke-dasharray:none"
         id="circle1784"
         cx="-38.333065"
         cy="8.8140163"
         transform="scale(-1,1)"
         rx="6.6141729"
         ry="6.6141734" />
      <path
         style="fill:none;stroke:#000000;stroke-width:3.77953px;stroke-linecap:round;stroke-linejoin:miter;stroke-opacity:1"
         d="M 16.600781,9.7588979 H 30.050035"
         id="path1819" />
      <path
         style="fill:none;stroke:#000000;stroke-width:3.77953px;stroke-linecap:round;stroke-linejoin:miter;stroke-opacity:1"
         d="m 58.175585,28.657836 15.11811,-0.0013"
         id="path1903"
         sodipodi:nodetypes="cc" />
      <path
         style="fill:none;stroke:#000000;stroke-width:3.77953px;stroke-linecap:round;stroke-linejoin:miter;stroke-opacity:1"
         d="M 16.600781,-9.1387401 H 43.057474"
         id="path2739" />
      <ellipse
         style="fill:none;stroke:#000000;stroke-width:3.77951;stroke-linecap:square;stroke-linejoin:round;stroke-miterlimit:4;stroke-dasharray:none"
         id="circle2741"
         cx="51.561413"
         cy="-10.083622"
         rx="6.6141729"
         ry="6.6141734" />
      <path
         style="fill:none;stroke:#000000;stroke-width:3.77953px;stroke-linecap:round;stroke-linejoin:miter;stroke-opacity:1"
         d="m 58.175585,-9.1387401 h 15.11811"
         id="path2743" />
    </g>
  </g>
</svg>
