<?xml version="1.0" encoding="UTF-8" standalone="no"?>
<!-- Created with Inkscape (http://www.inkscape.org/) -->

<svg
   width="16"
   height="16"
   version="1.1"
   viewBox="0 0 16 16"
   id="svg4"
   sodipodi:docname="Home 16px_v.3.svg"
   inkscape:version="1.1.1 (3bf5ae0d25, 2021-09-20)"
   xmlns:inkscape="http://www.inkscape.org/namespaces/inkscape"
   xmlns:sodipodi="http://sodipodi.sourceforge.net/DTD/sodipodi-0.dtd"
   xmlns="http://www.w3.org/2000/svg"
   xmlns:svg="http://www.w3.org/2000/svg">
  <defs
     id="defs8" />
  <sodipodi:namedview
     id="namedview6"
     pagecolor="#ffffff"
     bordercolor="#666666"
     borderopacity="1.0"
     inkscape:pageshadow="2"
     inkscape:pageopacity="0.0"
     inkscape:pagecheckerboard="0"
     showgrid="true"
     inkscape:zoom="45.254834"
     inkscape:cx="6.4965435"
     inkscape:cy="8.1648736"
     inkscape:window-width="1920"
     inkscape:window-height="1017"
     inkscape:window-x="-8"
     inkscape:window-y="-8"
     inkscape:window-maximized="1"
     inkscape:current-layer="svg4"
     width="16px"
     inkscape:snap-global="false"
     showguides="true"
     inkscape:guide-bbox="true">
    <inkscape:grid
       type="xygrid"
       id="grid1106" />
    <sodipodi:guide
       position="7.96875,9.90625"
       orientation="0,-1"
       id="guide29248" />
  </sodipodi:namedview>
  <path
     d="M 1.25,8.7498477 H 3 v 5.4998883 c 0.024046,0.793512 0.3574169,1.000605 0.75,0.99998 0.8201746,3.54e-4 0.7045275,1.95e-4 1.5,2.84e-4 C 5.7840413,15.2419 5.9874165,14.817267 6,14.5 V 11 h 4 l -0.013864,3.5 c 3.05e-5,0.352715 0.232701,0.739133 0.763864,0.75 l 1.5,-2.92e-4 C 12.745886,15.237007 12.995586,14.973352 13,14.25 V 8.7498477 c 0.661557,0.00782 1.389787,-0.00391 2,0 0.686537,0.021607 0,-0.4999898 0,-0.4999898 L 8,1.25 c 0,0 -5.8049708,5.8280064 -7,7 -0.27228436,0.2647644 -0.4731475,0.4724721 0.25,0.4998477 z"
     fill="none"
     stroke="#0f0708"
     stroke-width="0.999991"
     id="path2"
     style="stroke-width:1.5006;stroke-miterlimit:4;stroke-dasharray:none"
     sodipodi:nodetypes="cccccccccccccccccc" />
</svg>
