<?xml version="1.0" encoding="UTF-8" standalone="no"?>
<!-- Created with Inkscape (http://www.inkscape.org/) -->

<svg
   width="16"
   height="16"
   version="1.1"
   viewBox="0 0 16 16"
   id="svg4"
   sodipodi:docname="Home 16px_v.2.svg"
   inkscape:version="1.1.1 (3bf5ae0d25, 2021-09-20)"
   xmlns:inkscape="http://www.inkscape.org/namespaces/inkscape"
   xmlns:sodipodi="http://sodipodi.sourceforge.net/DTD/sodipodi-0.dtd"
   xmlns="http://www.w3.org/2000/svg"
   xmlns:svg="http://www.w3.org/2000/svg">
  <defs
     id="defs8" />
  <sodipodi:namedview
     id="namedview6"
     pagecolor="#ffffff"
     bordercolor="#666666"
     borderopacity="1.0"
     inkscape:pageshadow="2"
     inkscape:pageopacity="0.0"
     inkscape:pagecheckerboard="0"
     showgrid="true"
     inkscape:zoom="32"
     inkscape:cx="3.84375"
     inkscape:cy="6.046875"
     inkscape:window-width="1920"
     inkscape:window-height="1017"
     inkscape:window-x="-8"
     inkscape:window-y="-8"
     inkscape:window-maximized="1"
     inkscape:current-layer="svg4"
     width="16px"
     inkscape:snap-global="false"
     showguides="true"
     inkscape:guide-bbox="true">
    <inkscape:grid
       type="xygrid"
       id="grid1106" />
    <sodipodi:guide
       position="7.515625,8.03125"
       orientation="0,-1"
       id="guide12444" />
  </sodipodi:namedview>
  <path
     d="M 1.4535495,8.5 H 2.9581678 V 14 c -0.00909,0.727236 0.02095,0.912235 0.5015394,1 0.6511574,5.28e-4 2.2407976,1.95e-4 2.5076968,0 0.482413,-0.03765 0.499871,-0.857942 0.50154,-1 V 11.5 H 9.47818 V 14 c 0.01107,0.220136 -0.09544,0.989128 0.501539,0.999996 h 2.435485 C 12.956103,14.988823 12.993655,14.302065 12.988956,14 V 8.5 c 0.661034,0.00782 1.396429,-0.00391 2.006158,0 0.685993,0.021608 0,-0.5 0,-0.5 L 7.973562,1 c 0,0 -5.8274695,5.8279826 -7.02155193,7 -0.2720686,0.2647698 -0.2210351,0.4726238 0.50153943,0.5 z"
     fill="none"
     stroke="#0f0708"
     stroke-width="0.999991"
     id="path2"
     style="stroke-width:1.50772;stroke-miterlimit:4;stroke-dasharray:none"
     sodipodi:nodetypes="cccccccccccccccccc" />
</svg>
