<?xml version="1.0" encoding="UTF-8" standalone="no"?>
<svg
   version="1.1"
   x="0px"
   y="0px"
   viewBox="-247 370.9 16 16"
   xml:space="preserve"
   id="svg36"
   sodipodi:docname="QR Code 16px.svg"
   width="16"
   height="16"
   inkscape:version="1.1.1 (3bf5ae0d25, 2021-09-20)"
   xmlns:inkscape="http://www.inkscape.org/namespaces/inkscape"
   xmlns:sodipodi="http://sodipodi.sourceforge.net/DTD/sodipodi-0.dtd"
   xmlns="http://www.w3.org/2000/svg"
   xmlns:svg="http://www.w3.org/2000/svg"><defs
     id="defs40" /><sodipodi:namedview
     id="namedview38"
     pagecolor="#ffffff"
     bordercolor="#666666"
     borderopacity="1.0"
     inkscape:pageshadow="2"
     inkscape:pageopacity="0.0"
     inkscape:pagecheckerboard="0"
     showgrid="true"
     inkscape:snap-others="false"
     inkscape:object-nodes="false"
     inkscape:snap-nodes="false"
     inkscape:snap-global="false"
     inkscape:zoom="16"
     inkscape:cx="-11.3125"
     inkscape:cy="11.71875"
     inkscape:window-width="1920"
     inkscape:window-height="1017"
     inkscape:window-x="-8"
     inkscape:window-y="-8"
     inkscape:window-maximized="1"
     inkscape:current-layer="svg36"
     width="16px"><inkscape:grid
       type="xygrid"
       id="grid3205" /></sodipodi:namedview><path
     style="stroke-width:0;stroke-miterlimit:4;stroke-dasharray:none"
     d="M -239.13204,374.4 H -238 v -3 h -3 v 1.23712 h 1.86796 z"
     id="polygon24" /><path
     id="rect4"
     d="m -239.5,378.4 h 1 v 1 h -1 z"
     style="fill:none;stroke:#000000;stroke-width:0.999996;stroke-miterlimit:4;stroke-dasharray:none;stroke-opacity:1" /><path
     id="polygon22"
     d="m -247,380.9 h 1.23711 v -2.43138 H -244 V 376.9 h -3 z"
     style="stroke-width:0.301605" /><path
     d="m -247.00001,386.89999 h 5.011 v -5.333 h -5.011 z m 0.67717,-4.61234 h 3.65667 v 3.89166 h -3.65667 z"
     id="path12"
     style="stroke-width:1;stroke-miterlimit:4;stroke-dasharray:none"
     inkscape:label="path12" /><path
     d="m -247,375.9003 h 5 v -5 h -5 z m 0.67568,-4.32432 h 3.64864 v 3.64863 h -3.64864 z"
     id="path8"
     style="stroke-width:0;stroke-miterlimit:4;stroke-dasharray:none" /><path
     style="fill:none;fill-opacity:1;stroke:#0b0000;stroke-width:1;stroke-miterlimit:4;stroke-dasharray:none;stroke-opacity:1"
     d="m -241.5,376.39999 h 5 v 5 h -5 z"
     id="path2740" /><path
     id="polygon20"
     d="M -244.12435,381.57677 H -242 v -3.67678 h -0.87603 v 2.23489 h -1.24832 z"
     style="stroke-width:1;stroke-miterlimit:4;stroke-dasharray:none" /><path
     style="stroke-width:0.706;stroke-miterlimit:4;stroke-dasharray:none"
     d="m -246,371.9 h 3 v 3 h -3 z"
     id="rect10" /><path
     id="rect6"
     d="m -233.5,377.4 h 2 v 2 h -2 z"
     style="fill:none;stroke:#120000;stroke-width:0.999995;stroke-miterlimit:4;stroke-dasharray:none;stroke-opacity:1" /><path
     style="fill:none;stroke:#0b0000;stroke-width:1.03;stroke-miterlimit:4;stroke-dasharray:none;stroke-opacity:1"
     d="m -231.5,375.4 h -4 v -4 h 4 c 0,0 0,4 0,4 z"
     id="path3771"
     inkscape:label="path3248" /><path
     style="fill:none;stroke:#0b0000;stroke-width:0.503;stroke-miterlimit:4;stroke-dasharray:none;stroke-opacity:1"
     d="m -231.8,375.1 h -2 v -2 h 2 c 0,0 0,2 0,2 z"
     id="path3773"
     inkscape:label="path3248" /><path
     style="fill:none;stroke:#0b0000;stroke-width:0.5;stroke-miterlimit:4;stroke-dasharray:none;stroke-opacity:1"
     d="m -243.24451,385.48349 h -2.5 v -2.5 h 2.5 c 0,0 0,2.5 0,2.5 z"
     id="path3248"
     inkscape:label="path3248" /><path
     id="polygon18"
     d="M -232.01522,385.79448 H -236 V 386.9 h 5 v -5.5 h -1.01522 z"
     style="stroke-width:0.5;stroke-miterlimit:4;stroke-dasharray:none"
     inkscape:label="polygon18" /><path
     style="fill:none;stroke:#000000;stroke-width:0.995;stroke-miterlimit:4;stroke-dasharray:none;stroke-opacity:1"
     d="m -232,381.40001 h -3.5 v 4 h 0.70708 v -3.18783 H -232 Z"
     id="polygon16" /><path
     id="path4188"
     d="m -239.5,374.4 h 2 v 1 h -2 z"
     style="fill:none;stroke:#000000;stroke-width:0.989368;stroke-miterlimit:4;stroke-dasharray:none;stroke-opacity:1" /><path
     style="fill:none;stroke:#000000;stroke-width:0.999996px;stroke-linecap:butt;stroke-linejoin:miter;stroke-opacity:1"
     d="m -241,384.4 h 1.5 v 2.5"
     id="path6362"
     sodipodi:nodetypes="ccc" /><path
     style="fill:none;stroke:#000000;stroke-width:0.999996px;stroke-linecap:butt;stroke-linejoin:miter;stroke-opacity:1"
     d="m -237,383.4 h -1.5 v 2.5"
     id="path6524"
     sodipodi:nodetypes="ccc" /></svg>
