<?xml version="1.0" encoding="UTF-8" standalone="no"?>
<svg
   width="30"
   height="30"
   viewBox="0 0 30 30"
   fill="none"
   version="1.1"
   id="svg4"
   sodipodi:docname="Reading list 16px.svg"
   inkscape:version="1.1.1 (3bf5ae0d25, 2021-09-20)"
   xmlns:inkscape="http://www.inkscape.org/namespaces/inkscape"
   xmlns:sodipodi="http://sodipodi.sourceforge.net/DTD/sodipodi-0.dtd"
   xmlns="http://www.w3.org/2000/svg"
   xmlns:svg="http://www.w3.org/2000/svg">
  <defs
     id="defs8" />
  <sodipodi:namedview
     id="namedview6"
     pagecolor="#ffffff"
     bordercolor="#666666"
     borderopacity="1.0"
     inkscape:pageshadow="2"
     inkscape:pageopacity="0.0"
     inkscape:pagecheckerboard="0"
     showgrid="true"
     inkscape:zoom="11.313708"
     inkscape:cx="11.402097"
     inkscape:cy="24.969709"
     inkscape:window-width="1920"
     inkscape:window-height="1017"
     inkscape:window-x="-8"
     inkscape:window-y="-8"
     inkscape:window-maximized="1"
     inkscape:current-layer="svg4"
     width="30px"
     inkscape:snap-global="false">
    <inkscape:grid
       type="xygrid"
       id="grid825" />
  </sodipodi:namedview>
  <path
     style="display:none;stroke:#060909;stroke-width:0.999588;stroke-linejoin:round;stroke-miterlimit:4;stroke-dasharray:none;stroke-opacity:1"
     d="M 22.5,17.5 H 9.7925447 C 9.5619375,17.5 9.375,17.763082 9.375,18.087594 v 1.824814 C 9.375,20.236925 9.5619375,20.5 9.7925447,20.5 H 22.5 Z"
     id="path1083" />
  <path
     style="display:none;stroke:#060909;stroke-width:0.999569;stroke-linejoin:round;stroke-miterlimit:4;stroke-dasharray:none;stroke-opacity:1"
     d="M 7.9175617,14.5 H 20.6254 v 3 H 7.9175617 C 7.686949,17.5 7.5,17.236918 7.5,16.91241 V 15.087589 C 7.5,14.763081 7.686949,14.5 7.9175617,14.5 Z"
     id="path1081" />
  <path
     style="display:none;stroke:#060909;stroke-width:0.999578;stroke-linejoin:round;stroke-miterlimit:4;stroke-dasharray:none;stroke-opacity:1"
     d="M 9.7925443,11.5 H 22.5 v 3 H 9.7925443 c -0.2306072,0 -0.4175447,-0.2625 -0.4175447,-0.588 v -1.824 c 0,-0.3255 0.1869375,-0.588 0.4175447,-0.588 z"
     id="path1079" />
  <path
     style="display:none;stroke:#060909;stroke-width:0.999569;stroke-linejoin:round;stroke-miterlimit:4;stroke-dasharray:none;stroke-opacity:1"
     d="m 8.5,8.5 h 12.1254 v 3 H 8.5 c -0.324459,0 -0.9996205,-0.251204 -0.999783,-1 L 7.5,9.5 c -1.45e-4,-0.668264 0.4256328,-1 1,-1 z"
     id="path1077"
     sodipodi:nodetypes="sccssss" />
  <rect
     style="fill:none;stroke:#000000;stroke-width:1;stroke-linecap:round;stroke-miterlimit:3.5"
     id="rect4842"
     width="13"
     height="3"
     x="9.5"
     y="11.5" />
  <rect
     style="fill:none;stroke:#000000;stroke-width:1;stroke-linecap:round;stroke-miterlimit:3.5"
     id="rect4924"
     width="13"
     height="3"
     x="7.4999995"
     y="8.5" />
  <rect
     style="fill:none;stroke:#000000;stroke-width:1;stroke-linecap:round;stroke-miterlimit:3.5"
     id="rect4926"
     width="13"
     height="3"
     x="7.4999995"
     y="14.5" />
  <rect
     style="fill:none;stroke:#000000;stroke-width:1;stroke-linecap:round;stroke-miterlimit:3.5"
     id="rect4928"
     width="13"
     height="3"
     x="9.5"
     y="17.5" />
</svg>
